# xmcd
#
# Track frame offsets:
#	150
#	10751
#	23432
#	43415
#	59328
#	79490
#	97915
#	109183
#	121629
#	134397
#	146230
#	157651
#	170151
#	180851
#
# Disc length: 2619 seconds
#
# Revision: 1
# Processed by: cddbd v1.5.2PL0 Copyright (c) Steve Scherf et al.
# Submitted via: audiograbber 1.83.01
#
DISCID=ae0a390e
DTITLE=Crystal Swing - The Best Years Of Our Lives
DYEAR=1900
DGENRE=
TTITLE0=The Best Years Of Our Lives
TTITLE1=Life If What You Make It
TTITLE2=My Irish Rose
TTITLE3=He Drinks Tequilla
TTITLE4=Mary Anne Regrets
TTITLE5=Cryin' Time/Together Again/I Can't Stop Loving You/Please Help Me I'm F
TTITLE5=alling
TTITLE6=Halfway To Paradise
TTITLE7=Happy Anniversary
TTITLE8=Every Little Thing
TTITLE9=She Wears My Ring
TTITLE10=Walking Back To Happiness
TTITLE11=Courtin Time In Tennessee
TTITLE12=Sea Cruise
TTITLE13=Shake Hands With Your Uncle Mike/Hannigan's Hooley/If Your Irish
EXTD=
EXTT0=
EXTT1=
EXTT2=
EXTT3=
EXTT4=
EXTT5=
EXTT6=
EXTT7=
EXTT8=
EXTT9=
EXTT10=
EXTT11=
EXTT12=
EXTT13=
PLAYORDER=
